<svg width="900" height="600" viewBox="0 0 900 600" fill="none" xmlns="http://www.w3.org/2000/svg"><path fill="transparent" d="M0 0h900v600H0z"/><path fill-rule="evenodd" clip-rule="evenodd" d="M476.862 326.571v126.914c0 15.085 12.218 27.302 27.303 27.302h191.101c15.085 0 27.303-12.217 27.303-27.302V326.571" fill="#666AF6"/><path d="M476.862 326.571v126.914c0 15.085 12.218 27.302 27.303 27.302h191.101c15.085 0 27.303-12.217 27.303-27.302V326.571" stroke="#666AF6" stroke-width="18.3" stroke-linecap="round" stroke-linejoin="round"/><path fill-rule="evenodd" clip-rule="evenodd" d="m488.958 303.922 95.476-64.228a27.393 27.393 0 0 1 30.564 0l95.476 64.228c16.081 10.825 16.081 34.483 0 45.308l-80.186 53.949a54.741 54.741 0 0 1-61.13 0l-80.187-53.949c-16.094-10.825-16.094-34.496-.013-45.308z" fill="#fff" stroke="#666AF6" stroke-width="18.3" stroke-linecap="round" stroke-linejoin="round"/><path d="M553.541 310.682h92.363m-82.202 36.639h72.422" stroke="#666AF6" stroke-width="17.132" stroke-linecap="round" stroke-linejoin="round"/><path fill-rule="evenodd" clip-rule="evenodd" d="m367.617 492.46-23.129 23.13-23.129-23.13H275.1c-19.162 0-34.694-15.531-34.694-34.694V318.991c0-19.163 15.532-34.694 34.694-34.694h138.776c19.163 0 34.694 15.531 34.694 34.694v138.775c0 19.163-15.531 34.694-34.694 34.694h-46.259z" fill="#666AF6"/><path fill-rule="evenodd" clip-rule="evenodd" d="M319.496 413.336c23.223 23.233 52.648 38.041 70.147 20.616l4.245-4.245c5.649-5.648 4.861-14.999-1.692-19.563-4.138-2.883-8.585-5.978-13.499-9.436-5.085-3.574-12.064-3.031-16.478 1.351l-4.798 4.766c-5.947-3.766-11.83-8.606-17.298-14.063l-.021-.021c-5.457-5.458-10.297-11.351-14.063-17.298l4.766-4.798c4.382-4.414 4.936-11.403 1.34-16.488a2114.815 2114.815 0 0 1-9.415-13.468c-4.553-6.574-13.914-7.372-19.573-1.713l-4.245 4.245c-17.414 17.499-2.617 46.903 20.606 70.147" fill="#fff"/><path d="M449.158 117.303v114.845c0 9.861-6.836 17.855-15.268 17.855H277.382c-2.937 0-5.821.997-8.305 2.863l-23.029 17.451c-10.155 7.698-23.573-.827-23.573-14.992V117.281c0-9.86 6.836-17.854 15.268-17.854h196.129c8.45.021 15.286 8.015 15.286 17.876z" fill="#666AF6"/><path d="M270.74 182.497h130.398c4.084 0 7.406-3.322 7.406-7.406s-3.322-7.405-7.406-7.405H270.74c-4.084 0-7.406 3.321-7.406 7.405s3.322 7.406 7.406 7.406zm.437-31.819h58.792c4.084 0 7.406-3.322 7.406-7.406s-3.322-7.406-7.406-7.406h-58.792c-4.084 0-7.405 3.322-7.405 7.406s3.321 7.406 7.405 7.406zm129.961 49.806H270.74c-4.084 0-7.406 3.322-7.406 7.406s3.322 7.406 7.406 7.406h130.398c4.084 0 7.406-3.322 7.406-7.406s-3.322-7.406-7.406-7.406z" fill="#fff"/><path d="M522.831 111.623v78.357c0 6.727 4.664 12.181 10.417 12.181H640.03c2.004 0 3.971.68 5.666 1.953l15.712 11.907c6.929 5.252 16.084-.564 16.084-10.228v-94.184c0-6.728-4.665-12.182-10.417-12.182H533.26c-5.765.014-10.429 5.469-10.429 12.196z" fill="#666AF6"/><path d="M644.562 156.103h-88.968a5.058 5.058 0 0 1-5.053-5.053 5.058 5.058 0 0 1 5.053-5.052h88.968a5.057 5.057 0 0 1 5.052 5.052 5.058 5.058 0 0 1-5.052 5.053zm-.299-21.709h-40.112a5.058 5.058 0 0 1-5.053-5.053 5.058 5.058 0 0 1 5.053-5.053h40.112a5.058 5.058 0 0 1 5.052 5.053 5.058 5.058 0 0 1-5.052 5.053zm-88.669 33.981h88.968a5.058 5.058 0 0 1 5.052 5.053 5.058 5.058 0 0 1-5.052 5.053h-88.968a5.058 5.058 0 0 1-5.053-5.053 5.058 5.058 0 0 1 5.053-5.053z" fill="#fff"/><path d="M785.225 426.065c-4.689 9.688-18.57 12.669-18.57 12.669s-6.271-12.729-1.574-22.414c4.69-9.688 18.563-12.671 18.563-12.671s6.27 12.729 1.581 22.416z" fill="url(#a)"/><path d="M143.359 155.294c19.973 13.757 50.486 4.14 50.486 4.14s-1.889-31.917-21.876-45.661c-19.972-13.757-50.472-4.154-50.472-4.154s1.889 31.918 21.862 45.675z" fill="url(#b)"/><path d="M753.254 180.042c-13.777 14.022-39.539 11.066-39.539 11.066s-3.41-25.691 10.38-39.705c13.777-14.022 39.527-11.074 39.527-11.074s3.409 25.691-10.368 39.713z" fill="url(#c)"/><circle cx="467.423" cy="501.277" r="11.836" transform="rotate(180 467.423 501.277)" fill="#666AF6"/><ellipse cx="562.299" cy="453.99" rx="13.106" ry="12.451" transform="rotate(180 562.299 453.99)" fill="#666AF6"/><circle r="11.768" transform="matrix(-1 0 0 1 485.286 234.474)" fill="#666AF6"/><ellipse rx="11.796" ry="11.14" transform="matrix(-1 0 0 1 496.521 147.239)" fill="#E1E4E5"/><circle r="9.469" transform="matrix(-1 0 0 1 236.427 515.721)" fill="#E1E4E5"/><circle r="5.656" transform="matrix(-1 0 0 1 559.92 530.159)" fill="#E1E4E5"/><circle r="8.079" transform="matrix(-1 0 0 1 700.14 76.125)" fill="#E1E4E5"/><circle r="7.895" transform="scale(1 -1) rotate(-75 -22.198 -676.222)" fill="#E1E4E5"/><circle r="10.503" transform="matrix(-1 0 0 1 204.96 332.955)" fill="#E1E4E5"/><ellipse rx="8.079" ry="6.463" transform="matrix(-1 0 0 1 468.149 284.086)" fill="#E1E4E5"/><circle cx="736.953" cy="509.677" r="7.372" transform="rotate(75 736.953 509.677)" fill="#E1E4E5"/><path d="M194.321 68.046h.212c1.251 17.733 14.439 18.006 14.439 18.006s-14.542.284-14.542 20.775c0-20.49-14.543-20.775-14.543-20.775s13.183-.273 14.434-18.006zm259.673-4.483h.207c1.222 18.041 14.103 18.32 14.103 18.32s-14.204.288-14.204 21.135c0-20.847-14.204-21.136-14.204-21.136s12.876-.278 14.098-18.319zM162.605 386.021h.206c1.222 18.042 14.103 18.32 14.103 18.32s-14.204.289-14.204 21.135c0-20.846-14.203-21.135-14.203-21.135s12.875-.278 14.098-18.32zm569.33-159.952h.207c1.222 18.041 14.103 18.319 14.103 18.319s-14.204.289-14.204 21.135c0-20.846-14.203-21.135-14.203-21.135s12.875-.278 14.097-18.319zm43.507 71.727h.154c.913 13.48 10.538 13.688 10.538 13.688s-10.613.215-10.613 15.791c0-15.576-10.613-15.791-10.613-15.791s9.62-.208 10.534-13.688z" fill="#E1E4E5"/><defs><linearGradient id="a" x1="765.106" y1="460.543" x2="789.409" y2="362.101" gradientUnits="userSpaceOnUse"><stop stop-color="#fff"/><stop offset="1" stop-color="#EEE"/></linearGradient><linearGradient id="b" x1="221.161" y1="200.432" x2="63.941" y2="34.648" gradientUnits="userSpaceOnUse"><stop stop-color="#fff"/><stop offset="1" stop-color="#EEE"/></linearGradient><linearGradient id="c" x1="698.286" y1="227.939" x2="797.886" y2="71.807" gradientUnits="userSpaceOnUse"><stop stop-color="#fff"/><stop offset="1" stop-color="#EEE"/></linearGradient></defs></svg>